<?xml version="1.0" encoding="UTF-8" standalone="no"?>
<!-- Created with Inkscape (http://www.inkscape.org/) -->

<svg
   xmlns:dc="http://purl.org/dc/elements/1.1/"
   xmlns:cc="http://creativecommons.org/ns#"
   xmlns:rdf="http://www.w3.org/1999/02/22-rdf-syntax-ns#"
   xmlns:svg="http://www.w3.org/2000/svg"
   xmlns="http://www.w3.org/2000/svg"
   xmlns:sodipodi="http://sodipodi.sourceforge.net/DTD/sodipodi-0.dtd"
   xmlns:inkscape="http://www.inkscape.org/namespaces/inkscape"
   version="1.1"
   id="svg879"
   xml:space="preserve"
   width="800"
   height="800"
   viewBox="0 0 800 800"
   sodipodi:docname="cancer-horoscope-sign-publicdomainvectors.org.svg"
   inkscape:version="0.92.4 (5da689c313, 2019-01-14)"><metadata
     id="metadata885"><rdf:RDF><cc:Work
         rdf:about=""><dc:format>image/svg+xml</dc:format><dc:type
           rdf:resource="http://purl.org/dc/dcmitype/StillImage" /><dc:title></dc:title></cc:Work></rdf:RDF></metadata><defs
     id="defs883"><clipPath
       clipPathUnits="userSpaceOnUse"
       id="clipPath895"><path
         d="M 0,600 H 600 V 0 H 0 Z"
         id="path893"
         inkscape:connector-curvature="0" /></clipPath></defs><sodipodi:namedview
     pagecolor="#ffffff"
     bordercolor="#666666"
     borderopacity="1"
     objecttolerance="10"
     gridtolerance="10"
     guidetolerance="10"
     inkscape:pageopacity="0"
     inkscape:pageshadow="2"
     inkscape:window-width="1920"
     inkscape:window-height="1018"
     id="namedview881"
     showgrid="false"
     inkscape:zoom="0.8666263"
     inkscape:cx="401.69492"
     inkscape:cy="405.08475"
     inkscape:window-x="-8"
     inkscape:window-y="-8"
     inkscape:window-maximized="1"
     inkscape:current-layer="g887" /><g
     id="g887"
     inkscape:groupmode="layer"
     inkscape:label="cancer-horoscope-sign-publicdomainvectors.org"
     transform="matrix(1.3333333,0,0,-1.3333333,0,800)"><g
       id="g889"><g
         id="g891"
         clip-path="url(#clipPath895)"><path
           d="m 433.32,112.418 c -1.21,4.43 -9.193,3.617 -12.437,2.501 0.29,-2.169 -1.426,-22.276 11.659,-37.744 -4.591,17.702 1.679,31.94 0.778,35.243 m -4.857,53.597 c -1.326,-3.149 -12.019,-51.661 -7.143,-47.225 8.946,5.906 15.45,-4.266 15.513,0.04 0.224,13.628 -0.116,44.681 0.617,46.744 -2.944,1.761 -8.199,2.309 -8.987,0.441 m -10.115,51.754 c -2.889,2.54 -10.016,-1.637 -9.845,-3.656 0.285,-3.409 14.886,-51.479 17.155,-45.287 5.2,9.375 13.985,0.419 12.14,4.318 -6.009,12.683 -19.143,42.459 -19.45,44.625 m -0.188,5.845 c -9.794,11.162 -24.504,41.109 -25.067,43.224 -3.429,-0.222 -11.479,-8.669 -10.942,-9.952 0,0 21.226,-46.884 22.634,-40.849 4.025,9.933 16.214,4.333 13.375,7.577 m 110.602,-37.261 c -3.672,2.766 -9.486,-2.759 -11.37,-5.629 1.554,-1.537 12.498,-18.495 32.317,-22.72 -14.464,11.194 -18.215,26.292 -20.947,28.349 m -1.147,7.224 c -8.157,10.915 -27.426,35.275 -28.108,37.353 -3.41,-0.412 -7.904,-3.195 -7.382,-5.152 0.877,-3.303 22.104,-48.217 23.242,-41.724 3.464,10.145 14.836,6.075 12.248,9.523 m -32.468,43.551 c -12.516,6.353 -41.123,21.869 -42.688,23.393 -3.837,0.243 -6.921,-7.417 -5.55,-8.911 2.311,-2.523 43.273,-31.614 41.28,-25.327 -1.623,10.598 10.806,8.895 6.958,10.845 m -46.412,27.905 c -14.583,2.836 -42.176,14.676 -43.922,16.004 -2.571,-2.271 -7.883,-10.917 -6.677,-11.604 0,0 47.231,-24.214 44.656,-18.578 -2.899,10.32 10.173,13.351 5.943,14.178 m 111.153,63.793 c 0.503,-3.397 3.466,-10.852 7.956,-9.885 3.343,0.723 13.083,12.85 30.908,16.938 -19.754,4.483 -36.807,-6.311 -38.864,-7.053 m -3.237,-2.174 c 1.695,6.372 -36.426,-25.484 -38.608,-28.114 -1.3,-1.558 1.612,-5.968 4.535,-7.773 1.495,1.6 29.205,15.622 41.189,22.098 3.796,2.048 -8.234,3.128 -7.116,13.789 m -89.198,-42.997 c 2.056,0.729 34.539,2.8 48.563,3.314 4.312,0.154 -7.683,3.828 -1.763,12.766 4.446,4.868 -44.941,-4.339 -48.097,-5.661 -1.868,-0.781 -2.29,-9.027 1.297,-10.419 m -47.656,14.122 c -1.384,-0.119 -11.513,-9.818 -10.126,-12.963 2.14,0.475 38.087,-0.144 52.506,-3.689 4.19,-1.026 -6.403,7.213 0.561,15.363 4.704,4.033 -42.941,1.289 -42.941,1.289 m 142.471,97.231 c 0.811,2.032 12.191,18.702 8.394,38.602 -4.705,-17.673 -17.16,-26.989 -18.001,-30.306 -1.123,-4.451 6.231,-7.673 9.607,-8.296 m -31.704,-41.017 c 0.817,2.032 21.562,25.147 30.383,35.528 2.796,3.284 -8.81,-0.071 -11.629,10.27 -0.729,6.552 -24.711,-36.954 -25.797,-40.199 -0.642,-1.92 3.667,-4.976 7.043,-5.599 m -48.797,-26.612 c 1.66,1.429 31.181,15.134 44.064,20.695 3.961,1.708 -8.548,0.782 -6.27,11.258 2.379,6.149 -40.314,-20.334 -42.773,-22.71 -1.463,-1.407 1.136,-9.243 4.979,-9.243 m -9.042,10.253 c 2.921,5.465 -40.486,-14.367 -40.486,-14.367 -1.249,-0.613 -4.251,-13.66 -1.821,-16.089 1.821,1.214 32.631,14.013 47.355,15.939 4.279,0.559 -8.581,4.396 -5.048,14.517 m -53.949,5.668 c 35.214,-6.071 73.675,37.642 61.658,83.176 -11.758,-51.602 -69.748,-33.19 -92.927,-44.726 -8.003,-5.464 -3.944,-32.379 31.269,-38.45 m 53.949,110.497 c 12.031,-12.749 16.687,-36.025 13.651,-53.025 32.787,34.811 7.485,76.433 -3.441,84.327 2.124,-9.749 -4.921,-26.583 -10.21,-31.302 m -46.252,-5.891 c 5.464,2.001 -13.358,27.748 -13.358,27.748 -6.462,-4.014 -35.821,3.035 -55.855,9.445 4.248,-13.628 60.104,-39.801 69.213,-37.193 m 13.331,0 c 18.843,0 34.631,11.962 37.78,31.387 0.274,37.645 -119.112,55.859 -151.895,32.788 35.212,3.642 101.972,-18.843 114.115,-64.175 M 168.13,112.418 c -0.9,-3.303 5.368,-17.541 0.778,-35.243 13.087,15.468 11.369,35.575 11.658,37.744 -3.242,1.116 -11.225,1.929 -12.436,-2.501 m -4.131,53.156 c 0.732,-2.063 0.396,-33.116 0.617,-46.744 0.066,-4.306 6.57,5.866 15.518,-0.04 4.87,-4.436 -5.818,44.076 -7.148,47.225 -0.785,1.868 -6.039,1.32 -8.987,-0.441 m 19.105,52.195 c -0.306,-2.166 -13.442,-31.942 -19.453,-44.625 -1.842,-3.899 6.942,5.057 12.138,-4.318 2.276,-6.192 16.875,41.878 17.159,45.287 0.166,2.019 -6.955,6.196 -9.844,3.656 m 25.254,49.069 c -0.564,-2.115 -15.275,-32.062 -25.066,-43.224 -2.842,-3.244 9.349,2.356 13.372,-7.577 1.41,-6.035 22.636,40.849 22.636,40.849 0.536,1.283 -7.516,9.73 -10.942,9.952 M 72.688,186.353 c -2.732,-2.057 -6.484,-17.155 -20.945,-28.349 19.814,4.225 30.759,21.183 32.314,22.72 -1.883,2.87 -7.701,8.395 -11.369,5.629 m 29.259,44.577 c -0.688,-2.078 -19.953,-26.438 -28.113,-37.353 -2.586,-3.448 8.786,0.622 12.247,-9.523 1.137,-6.493 22.366,38.421 23.243,41.724 0.522,1.957 -3.969,4.74 -7.377,5.152 m 47.045,29.591 c -1.565,-1.524 -30.175,-17.04 -42.688,-23.393 -3.846,-1.95 8.581,-0.247 6.959,-10.845 -1.991,-6.287 38.971,22.804 41.279,25.327 1.369,1.494 -1.711,9.154 -5.55,8.911 m 47.642,20.516 c -1.741,-1.328 -29.342,-13.168 -43.917,-16.004 -4.231,-0.827 8.838,-3.858 5.942,-14.178 -2.58,-5.636 44.654,18.578 44.654,18.578 1.208,0.687 -4.103,9.333 -6.679,11.604 m -155.07,47.789 c -2.059,0.742 -19.11,11.536 -38.869,7.053 17.826,-4.088 27.572,-16.215 30.912,-16.938 4.49,-0.967 7.451,6.488 7.957,9.885 M 83.41,298.538 c -2.183,2.63 -40.304,34.486 -38.612,28.114 1.117,-10.661 -10.911,-11.741 -7.117,-13.789 11.986,-6.476 39.697,-20.498 41.194,-22.098 2.921,1.805 5.829,6.215 4.535,7.773 m 2.022,-11.569 c 14.027,-0.514 46.504,-2.585 48.567,-3.314 3.586,1.392 3.162,9.638 1.295,10.419 -3.155,1.322 -52.544,10.529 -48.098,5.661 5.921,-8.938 -6.072,-12.612 -1.764,-12.766 m 53.84,-5.844 c 14.42,3.545 50.368,4.164 52.503,3.689 1.387,3.145 -8.738,12.844 -10.123,12.963 0,0 -47.646,2.744 -42.939,-1.289 6.961,-8.15 -3.629,-16.389 0.559,-15.363 M 48.788,403.304 c -0.838,3.317 -13.295,12.633 -18.001,30.306 -3.794,-19.9 7.584,-36.57 8.397,-38.602 3.379,0.623 10.73,3.845 9.604,8.296 m -8.286,-13.785 c 8.825,-10.381 29.568,-33.496 30.383,-35.528 3.376,0.623 7.683,3.679 7.044,5.599 -1.085,3.245 -25.065,46.751 -25.795,40.199 -2.821,-10.341 -14.426,-6.986 -11.632,-10.27 m 35.116,-41.445 c 12.886,-5.561 42.401,-19.266 44.063,-20.695 3.843,0 6.443,7.836 4.984,9.243 -2.463,2.376 -45.153,28.859 -42.773,22.71 2.276,-10.476 -10.234,-9.55 -6.274,-11.258 m 53.108,-10.442 c 3.533,-10.121 -9.323,-13.958 -5.048,-14.517 14.722,-1.926 45.533,-14.725 47.355,-15.939 2.429,2.429 -0.574,15.476 -1.822,16.089 0,0 -43.409,19.832 -40.485,14.367 M 301.398,222.924 c 49.929,5.25 150.081,98.811 119.271,110.662 -32.377,-6.476 -60.948,37.946 -41.017,61.522 -12.167,9.265 -64.368,52.617 -77.954,55.483 -0.305,0.115 -0.61,0.161 -1.041,0.146 -0.431,0.015 -0.766,-0.031 -1.07,-0.146 -13.588,-2.866 -65.905,-46.218 -78.077,-55.483 19.932,-23.576 -9.035,-67.998 -41.416,-61.522 C 149.282,321.735 250.121,228.174 298.7,222.924 v -0.241 c 1.349,0.009 0.759,0.046 1.349,0.086 0.588,-0.04 1.349,-0.077 1.349,-0.086 z M 182.669,343.3 c 35.214,6.071 39.277,32.986 31.275,38.45 -23.178,11.536 -81.171,-6.876 -92.928,44.726 -12.02,-45.534 26.442,-89.247 61.653,-83.176 m -53.943,110.497 c -5.292,4.719 -12.333,21.553 -10.211,31.302 -10.928,-7.894 -36.225,-49.516 -3.44,-84.327 -3.033,17 1.621,40.276 13.651,53.025 m 115.466,31.302 c -20.034,-6.41 -49.398,-13.459 -55.856,-9.445 0,0 -18.821,-25.747 -13.357,-27.748 9.105,-2.608 64.962,23.565 69.213,37.193 m -120.325,-5.806 c -0.278,37.645 119.109,55.859 151.894,32.788 -35.212,3.642 -101.971,-18.843 -114.115,-64.175 -18.845,0 -34.629,11.962 -37.779,31.387"
           style="fill:#231f20;fill-opacity:1;fill-rule:nonzero;stroke:none"
           id="path897"
           inkscape:connector-curvature="0" /></g></g></g></svg>