<?xml version="1.0" encoding="UTF-8" standalone="no"?>
<!-- Created with Inkscape (http://www.inkscape.org/) -->

<svg
   xmlns:dc="http://purl.org/dc/elements/1.1/"
   xmlns:cc="http://creativecommons.org/ns#"
   xmlns:rdf="http://www.w3.org/1999/02/22-rdf-syntax-ns#"
   xmlns:svg="http://www.w3.org/2000/svg"
   xmlns="http://www.w3.org/2000/svg"
   xmlns:sodipodi="http://sodipodi.sourceforge.net/DTD/sodipodi-0.dtd"
   xmlns:inkscape="http://www.inkscape.org/namespaces/inkscape"
   width="202.86133mm"
   height="202.86133mm"
   viewBox="0 0 718.79998 718.79998"
   id="svg2"
   version="1.1"
   inkscape:version="0.91 r13725"
   sodipodi:docname="CancerDrawing5.svg">
  <defs
     id="defs4">
    <filter
       inkscape:label="Modified combined Lighting"
       inkscape:menu="Bevels"
       inkscape:menu-tooltip="Basic specular bevel to use for building textures"
       style="color-interpolation-filters:sRGB"
       id="filter125483"
       height="1.04"
       width="1.04"
       y="-0.02"
       x="-0.02">
      <feGaussianBlur
         stdDeviation="6"
         in="SourceGraphic"
         result="result0"
         id="feGaussianBlur125485" />
      <feDiffuseLighting
         lighting-color="#ffffff"
         diffuseConstant="1"
         surfaceScale="4"
         result="result5"
         id="feDiffuseLighting125487">
        <feDistantLight
           elevation="45"
           azimuth="235"
           id="feDistantLight125489" />
      </feDiffuseLighting>
      <feComposite
         k1="1.4"
         in2="SourceGraphic"
         in="result5"
         result="fbSourceGraphic"
         operator="arithmetic"
         id="feComposite125491"
         k2="0"
         k3="0"
         k4="0" />
      <feGaussianBlur
         result="result0"
         in="fbSourceGraphic"
         stdDeviation="6"
         id="feGaussianBlur125493" />
      <feSpecularLighting
         specularExponent="25"
         specularConstant="1"
         surfaceScale="4"
         lighting-color="#ffffff"
         result="result1"
         in="result0"
         id="feSpecularLighting125495">
        <feDistantLight
           azimuth="235"
           elevation="45"
           id="feDistantLight125497" />
      </feSpecularLighting>
      <feComposite
         k3="1"
         k2="1"
         operator="arithmetic"
         in="fbSourceGraphic"
         in2="result1"
         result="result4"
         id="feComposite125499"
         k1="0"
         k4="0" />
      <feComposite
         operator="in"
         result="fbSourceGraphic"
         in2="SourceGraphic"
         in="result4"
         id="feComposite125501" />
      <feColorMatrix
         result="fbSourceGraphicAlpha"
         in="fbSourceGraphic"
         values="0 0 0 -1 0 0 0 0 -1 0 0 0 0 -1 0 0 0 0 1 0"
         id="feColorMatrix125639" />
      <feGaussianBlur
         id="feGaussianBlur125641"
         stdDeviation="1.1000000000000001 1.1299999999999999"
         result="blur"
         in="fbSourceGraphic" />
      <feColorMatrix
         id="feColorMatrix125643"
         values="1 0 0 0 0 0 1 0 0 0 0 0 1 0 0 0 0 0 50 0 "
         result="colormatrix" />
      <feComposite
         id="feComposite125645"
         in2="fbSourceGraphic"
         in="colormatrix"
         operator="in" />
    </filter>
    <filter
       inkscape:collect="always"
       style="color-interpolation-filters:sRGB"
       id="filter126665"
       x="-0.099000007"
       width="1.198"
       y="-0.099000007"
       height="1.198">
      <feGaussianBlur
         inkscape:collect="always"
         stdDeviation="2.4750002"
         id="feGaussianBlur126667" />
    </filter>
  </defs>
  <sodipodi:namedview
     id="base"
     pagecolor="#ffffff"
     bordercolor="#666666"
     borderopacity="1.0"
     inkscape:pageopacity="0.0"
     inkscape:pageshadow="2"
     inkscape:zoom="0.73594882"
     inkscape:cx="359.39999"
     inkscape:cy="359.39999"
     inkscape:document-units="px"
     inkscape:current-layer="layer1"
     showgrid="false"
     inkscape:window-width="1366"
     inkscape:window-height="705"
     inkscape:window-x="-8"
     inkscape:window-y="-8"
     inkscape:window-maximized="1"
     fit-margin-top="0"
     fit-margin-left="0"
     fit-margin-right="0"
     fit-margin-bottom="0" />
  <metadata
     id="metadata7">
    <rdf:RDF>
      <cc:Work
         rdf:about="">
        <dc:format>image/svg+xml</dc:format>
        <dc:type
           rdf:resource="http://purl.org/dc/dcmitype/StillImage" />
        <dc:title></dc:title>
      </cc:Work>
    </rdf:RDF>
  </metadata>
  <g
     inkscape:label="Layer 1"
     inkscape:groupmode="layer"
     id="layer1"
     transform="translate(-20.788944,-519.00796)">
    <g
       id="g91385">
      <circle
         transform="matrix(10,0,0,10,-3421.7007,-4530.6759)"
         id="circle124440-1"
         r="30"
         cy="540.90839"
         cx="380.18896"
         style="fill:#000000;fill-opacity:1;stroke:none;stroke-opacity:1;filter:url(#filter126665)" />
      <circle
         transform="matrix(10,0,0,10,-3421.7007,-4530.6759)"
         id="circle124440"
         r="30"
         cy="538.90839"
         cx="378.189"
         style="fill:#ffaa01;fill-opacity:1;stroke:none;stroke-opacity:1;filter:url(#filter125483)" />
      <path
         style="opacity:0.7"
         id="path4"
         d="m 403.59901,743.15688 c -1.6525,0.64 -6.4,-0.67 -5.95,2.375 5.47,2.3925 11.53774,2.71 17.12774,4.675 5.665,2.8425 9.79484,7.905 14.58984,11.925 2.055,2.5 4.25,4.90757 6.7125,7.01757 8.8975,8.8125 18.09492,18.46758 30.51992,21.98008 3.3225,0.87 7.35508,1.525 10.29258,-0.675 4.275,-2.3925 6.36234,-7.67765 5.70234,-12.41015 -0.0124,-4.0175 -3.20242,-7.22243 -6.73242,-8.66993 -13.945,-6.4875 -27.89742,-13.05507 -42.26992,-18.50507 -3.0725,-1.09 -6.04766,-2.54516 -9.24766,-3.22266 -6.135,-2.4475 -12.78734,-3.27734 -19.18984,-4.48984 l -1.55508,0 z m -81.01288,0.32773 c -9.65129,-0.0737 -18.90571,3.59258 -27.73711,7.19492 -10.05,3.625 -20.18992,7.37 -29.78242,12 -0.2625,0.0525 -0.52016,0.11219 -0.77266,0.17969 -7.68,4.02 -19.16977,6.36766 -20.72227,16.34766 -0.055,0.3575 -0.0602,0.73484 0.0773,1.07734 0.0175,3.1175 1.22492,6.62773 3.73242,8.56523 0.0625,0.0625 0.19281,0.18243 0.25781,0.24493 0.815,1.7675 3.00227,2.49507 4.77227,3.01757 8.3,0.6 16.12765,-3.74773 22.39765,-8.72773 2.825,-1.805 5.55508,-3.975 7.73008,-6.525 2.1,-1.1475 3.6575,-3.22742 5.25,-4.99492 1.9375,-1.5775 3.87242,-3.38227 5.26992,-5.47227 5.47,-5.68 11.30477,-11.22008 17.97227,-15.45508 2.89,-1.2275 5.69273,-2.80742 8.85273,-3.23242 3.1125,-0.475 6.76258,-0.45008 8.96758,-3.08008 -0.6925,-0.96 -2.25031,-0.66507 -3.25781,-0.99257 -1.00688,-0.0919 -2.0094,-0.13965 -3.00781,-0.14727 z m 59.38984,6.25234 c -2.85362,0.0784 -1.83516,3.83086 -0.19454,5.23008 8.3875,9.19 21.6425,9.16719 32.8,12.44219 5.2825,0.62 9.56532,3.99273 14.57032,5.45273 1.975,0.5875 2.28976,-1.90507 1.12226,-2.89257 -12.9575,-12.6725 -32.635,-11.80266 -47.675,-20.19766 -0.22562,-0.0292 -0.4328,-0.04 -0.62304,-0.0348 z m -37.61719,0.18086 c -1.47493,0.0285 -3.46914,0.99313 -4.28476,1.75391 -0.805,0.195 -1.64008,0.40523 -2.28008,0.96523 -3.8425,1.6675 -8.24227,2.53985 -11.93477,4.05235 -2.73,0.435 -5.42265,1.31515 -7.99765,2.24765 -3.6175,0.8825 -7.6425,1.85477 -10.7375,3.77227 -3.745,1.5275 -7.73985,3.43031 -10.23985,6.73281 -1.2775,0.4225 -2.30015,2.5175 -0.96015,3.4375 1.165,-0.025 2.89508,-0.36508 3.59258,-1.28008 4.3525,-1.4725 8.93007,-4.14265 13.20507,-4.99765 3.145,-0.3625 6.83235,-1.06742 9.51485,-1.96992 4.22,-0.76 8.76508,-1.53243 12.58008,-3.50743 2.74,-1.03 5.61265,-2.44007 7.52265,-4.71757 1.73,-0.775 2.73242,-2.82243 3.71992,-4.31993 0.28,-1.64718 -0.55321,-2.19134 -1.70039,-2.16914 z M 235.5666,780.00688 c -1.255,0.055 -2.5825,0.88992 -3.45,1.69492 -0.6125,0.115 -1.25516,0.3775 -1.52266,0.9875 -2.9925,1.6375 -5.605,4.70258 -6.4625,8.04258 -2.3675,4.235 -2.10234,10.02507 -1.01484,14.83007 0.2525,1.995 0.84,4.15743 1.975,5.83243 0.59,1.85 1.67984,3.47765 2.77734,5.06015 0.9725,-1.9125 2.27281,-3.72258 3.10781,-5.64258 2.385,-1.965 4.09227,-4.89773 6.30977,-7.14023 2.8825,-2.2075 5.57492,-4.89492 9.21992,-5.79492 -1.2175,-1.535 -3.23469,-2.93977 -4.66719,-4.48477 -1.225,-1.6125 -2.34781,-3.58265 -3.80781,-4.92265 -0.9425,-2.775 -2.52984,-5.42 -2.46484,-8.4625 z m 255.31405,0.16289 c -0.10606,-0.004 -0.2093,-10e-4 -0.30898,0.007 0.0176,0.285 0.0399,0.57242 0.0699,0.85742 -0.6475,2.9625 -1.81758,5.74781 -3.31758,8.37031 -2.1225,2.5475 -4.2075,5.19969 -6.5125,7.57969 -2.8575,0.8175 1.0975,1.78781 2.3625,2.08281 6.77,4.0475 11.44501,10.65234 15.43751,17.30234 0.49,-0.185 0.485,-0.98242 0.725,-1.43242 2.03,-3.005 3.36258,-6.76515 3.89258,-10.37265 1.3525,-5.19 0.71508,-11.36258 -2.18242,-15.88008 -1.2275,-2.275 -2.87742,-4.61742 -5.28242,-5.73242 -1.04766,-1.37344 -3.2928,-2.72915 -4.88361,-2.78204 z m -95.93438,7.12617 c -0.25502,-0.0124 -0.54656,0.0686 -0.86952,0.27578 -4.5875,4.365 -8.42,9.49258 -13,13.85508 -4.4875,-4.6 -11.43524,-5.06235 -17.50274,-5.02735 -6.3675,-0.1 -13.70242,0.21258 -18.50741,5.01758 -4.2425,-4.335 -8.27,-8.92515 -12.425,-13.36015 -0.69,-1.105 -3.13743,-0.85493 -2.15743,0.88007 3.485,5.6175 9.23743,9.62008 12.13243,15.65508 0.555,1.015 -1.18008,0.50227 -1.64258,1.09727 -11.2675,2.6075 -21.80742,8.77 -30.15742,16.7125 -2.08,1.41 -3.8625,3.36773 -5.4,5.34023 -2.685,1.845 -4.91766,4.38727 -6.76016,7.02227 -4.605,4.5825 -9.00719,9.96742 -12.32969,15.65742 -2.0275,2.7275 -4.51523,7.10766 -2.74023,10.21016 1.63,3.785 5.76758,5.76484 9.09258,7.92734 10.3475,5.4325 21.45507,9.40016 32.66757,12.56016 9.7075,3.43 20.09485,6.13514 30.32734,8.19764 3.1225,0.345 6.33,1.31994 9.45,0.53244 2.075,-0.0176 4.16742,-0.4475 6.15742,-0.95 12.2,-2.57 24.26258,-5.91758 36.04258,-10.00508 6.5525,-2.0075 13.55516,-4.06758 19.43516,-7.26758 l 0.19492,-0.0398 c 5.525,-2.09002 11.63734,-4.38766 15.12734,-9.43516 3.0325,-4.7575 -0.66984,-10.34742 -3.55234,-14.19492 -4.2775,-6.525 -9.67984,-12.31735 -15.18984,-17.81485 -0.765,-1.615 -2.40532,-2.67765 -3.79532,-3.69765 -1.7325,-2.215 -4.07742,-4.02266 -6.26992,-5.73516 -8.1575,-8.04 -18.87258,-12.40242 -29.41758,-16.35742 2.1375,-5.955 7.91774,-9.64227 11.90274,-14.28477 0.7089,-0.90797 0.29218,-2.7173 -0.8129,-2.77109 z m -225.81953,7.89844 c -0.63,0.5225 -1.4328,1.34234 -0.8203,2.18984 4.835,8.075 10.4603,15.64008 16.2203,23.08008 1.3825,1.44 4.5672,1.56515 5.3047,-0.60235 1.4,-2.965 -1.1625,-5.84742 -2.8875,-8.06992 -5.4825,-5.995 -11.8522,-11.10765 -17.8172,-16.59765 z m 387.65314,0.0176 c -0.0418,-2e-4 -0.0843,10e-4 -0.12812,0.005 -3.1025,3.495 -6.90258,6.30234 -10.04258,9.72734 -2.335,1.3325 -4.10742,3.65016 -5.80742,5.68516 -2.47,2.4 -5.73508,5.65226 -4.43008,9.40976 1.4075,2.3525 4.85734,1.69492 6.13984,-0.45508 5.615,-6.7725 10.29508,-14.28218 15.15508,-21.60468 0.71446,-0.90336 0.4082,-2.75929 -0.88672,-2.76758 z m -84.29845,9.39257 c -1.30068,0.0329 -2.6489,0.62899 -3.41718,1.59493 -0.6875,0.095 -1.2725,0.46734 -1.7375,0.96484 -2.5875,1.1175 -5.16782,2.39773 -7.73282,3.50273 -0.13,0.055 -0.39226,0.16727 -0.52226,0.22227 -4.36,1.39 -8.81274,2.50266 -13.32774,3.28516 -2.7375,0.2725 -5.55992,0.76 -8.15742,1.4625 -2.465,0.555 -4.90258,2.21984 -6.43008,4.08984 -3.585,2.025 2.10258,5.28523 3.21758,7.15273 3.59,4.76 7.65492,9.40219 12.46992,13.00469 1.9475,1.835 4.71,0.45774 6.9875,0.27774 8.775,-2.17 17.2875,-5.46493 25.4625,-9.26993 4.165,-1.74 8.75758,-3.67781 12.18009,-6.30781 3.9925,-0.5575 0.52016,-4.91484 -0.46485,-6.58984 -0.2375,-1.245 -0.8675,-2.6275 -1.95,-3.3125 -2.8825,-5.39 -8.65758,-9.67258 -14.89258,-9.75508 -0.5125,-0.23594 -1.09394,-0.33721 -1.68516,-0.32227 z m -220.20194,0.12696 c -1.81982,0.0236 -3.58907,0.45859 -5.16797,1.45547 -2.36,0.635 -4.565,2.32007 -6.0375,4.21757 -3.855,3.4275 -6.42,8.25719 -8.4375,12.96719 3.0375,1.6625 5.68765,4.11524 8.99765,5.24024 6.7575,3.39 14.16977,6.155 21.43477,8.55 0.89,0.5775 1.96758,0.78 2.99258,0.9875 4.56,1.285 10.67765,4.7975 14.79765,0.7625 0.6425,-0.215 1.07243,-0.74274 1.44493,-1.27774 5.6675,-4.515 9.82515,-10.75992 14.19765,-16.51992 -0.205,-1.3175 -1.22515,-2.56977 -2.53515,-2.88477 -0.94,-1.355 -3.06258,-2.11 -4.70508,-2.5 -0.9325,-1.365 -3.2925,-0.82273 -4.775,-1.22773 -4.265,-0.0525 -8.28477,-1.49492 -12.40977,-2.33242 -2.7625,-1.215 -5.76265,-1.96735 -8.53515,-3.22735 -3.00954,-2.32375 -7.25853,-4.26248 -11.26211,-4.21054 z M 197.383,822.32252 c -2.33665,0.0871 -0.51476,4.49508 -1.0789,6.2668 3.645,4.0625 9.61515,5.52266 14.61015,7.52266 2.595,1.5975 6.6,2.72476 9.825,1.98476 2.36,-0.4375 2.2175,-3.72234 0.6375,-5.00234 -2.64,-2.325 -6.22523,-3.04766 -9.41523,-4.33516 -4.525,-2.1575 -9.1025,-4.32969 -13.7125,-6.31719 -0.33797,-0.0912 -0.6243,-0.12854 -0.86602,-0.11953 z m 331.97852,0.14922 c -7.9,3.3025 -16.02976,6.26508 -23.70976,10.00508 -3.1,0.295 -2.73016,5.88508 0.47734,5.66758 5.57,0.36 11.03484,-2.67 16.17734,-4.7625 2.705,-1.205 6.065,-2.29742 7.525,-5.05742 0.0675,-1.7525 0.32008,-4.43774 -0.46992,-5.85274 z M 234.0623,838.30416 c -0.40938,4e-4 -0.8043,0.11531 -1.18555,0.34531 -1.575,0.45 -2.29023,2.53227 -3.32773,3.73477 -0.4575,0.3525 -0.99485,0.8178 -0.92735,1.4578 3.53,2.2325 7.31258,4.37986 11.50508,4.98986 l 0.2,0.007 c 2.2275,0.8325 4.90735,0.58014 6.83985,-0.83986 1.4475,-1.8225 1.72757,-5.09 -0.60743,-6.35 -2.345,-1.1725 -4.85273,-2.14008 -7.46523,-2.49257 -1.17,-0.6 -2.49227,-0.53265 -3.75977,-0.51015 -0.43875,-0.22875 -0.8625,-0.34289 -1.27187,-0.34258 z m 257.44414,0.0227 c -0.39446,10e-4 -0.80453,0.0802 -1.22735,0.25508 -4.0775,0.4225 -11.04758,0.89992 -12.14258,5.74492 -1.285,4.3225 4.61266,6.11 7.82266,4.5625 2.5725,-0.165 5.17485,-1.1825 7.37735,-2.475 1.735,-0.6675 3.46266,-1.70234 4.76016,-3.00236 -0.6225,-0.95498 -1.55516,-1.71006 -2.57266,-2.20506 -0.89172,-1.43408 -2.3082,-2.88609 -4.01758,-2.88008 z m 79.95312,2.42812 c -1.5842,0.0348 -3.04014,0.6993 -4.55546,1.1543 -1.19,-0.15 -2.47758,0.015 -3.09258,1.23008 -2.1,1.02 -4.30992,1.79022 -6.41992,2.77772 -0.265,-0.105 -1.16484,-1.02506 -0.78984,-0.33006 0.765,0.99748 -1.67266,-0.008 -0.79766,1.06484 -4.755,2.1875 -9.52242,4.41516 -14.15742,6.84766 -2.345,2.9575 0.55742,8.35734 4.64492,6.45234 9.65,-4.31 17.7175,-11.40978 26.2875,-17.47228 l 0,-1.6375 c -0.38156,-0.0694 -0.75394,-0.0951 -1.11954,-0.0871 z m -417.63046,0.0445 0,0.69256 c 0.135,0.59 0.46008,1.1047 0.98008,1.4297 1.3725,1.14 2.69234,2.38258 4.27734,3.23008 2.1475,1.78 4.23,3.76272 6.7625,4.97772 0.765,0.665 1.47742,1.43728 2.43242,1.83478 2.505,1.755 4.92016,3.78516 7.77266,4.96016 2.525,2.19 8.64,3.90726 9.075,-1.01524 1.445,-4.2375 -3.4175,-4.71984 -6.0625,-6.00234 -2.995,-1.5125 -6.09516,-2.81516 -9.22266,-4.02266 -4.025,-1.785 -8.13726,-3.38234 -12.23476,-4.97734 -1.0825,-0.8475 -2.46758,-0.94244 -3.78008,-1.10742 z m 307.74101,5.02382 c -2.0345,-0.006 -4.00422,0.2636 -5.77344,1.28124 -2.7125,1.205 -2.17274,5.9875 0.99726,6.3375 4.595,1.285 10.99282,1.50228 14.32032,-2.24022 1.08,-1.44 1.11468,-4.19 -0.63282,-5.05 -2.82624,0.28054 -5.93784,-0.31914 -8.91132,-0.32852 z m -197.11055,0.007 c -1.61763,-0.0264 -3.27871,0.20298 -4.92773,0.3289 -0.009,1.6e-4 -0.0181,-1.6e-4 -0.0269,0 -0.33232,0.006 -0.65618,0.0253 -0.9711,0.0582 -6e-4,6e-5 -0.001,-4e-5 -0.002,0 -0.83445,0.0352 -1.66315,0.0277 -2.47812,-0.0754 -2.5025,1.365 -1.97492,5.23734 0.29258,6.52734 3.275,1.7625 7.30742,1.85734 10.83242,1.15234 0.395,0.0475 0.86266,0.21782 1.18516,-0.11718 4.645,0.15 4.98,-7.15274 0.225,-7.34024 -0.3525,-0.045 -1.06024,-0.12976 -1.41524,-0.17226 -0.88375,-0.24812 -1.79199,-0.34664 -2.71445,-0.36172 z m 262.73634,9.7078 c -1.101,-0.006 -2.40742,0.23984 -3.2168,0.3789 -4.4425,0.007 -9.10234,0.30736 -13.21484,2.15236 -2.73,0.8125 -3.3975,4.89742 -1.1625,6.58242 4.7525,2.9875 10.7525,0.64508 15.975,0.89258 3.5175,0.01 8.37242,-1.0525 8.94492,-5.1875 0.21,-3.04 -3.02758,-4.73266 -5.71758,-4.46016 -0.36094,-0.26156 -0.9476,-0.35518 -1.6082,-0.3586 z m -328.45352,0.14648 c -2.20884,-0.0234 -4.33282,0.3168 -5.90313,1.7172 -1.055,0.4 -1.10758,1.7775 -1.03008,2.7125 0.0425,2.6075 2.65477,3.82016 4.78477,4.52266 5.6375,1.46 12.34031,2.08756 17.70781,1.03006 l 0.21485,-0.0124 c 2.4175,0.0124 4.28765,-3.18772 3.09765,-4.87772 -0.7175,-2.29 -3.39781,-3.18758 -5.54531,-3.63008 -1.95,-0.6775 -4.08977,-1.00242 -6.17227,-0.99492 -2.03867,0.0531 -4.65094,-0.44062 -7.15429,-0.4672 z m 296.55156,4.97736 c -4.94751,0.225 -10.21493,0.26506 -14.64493,2.79256 -1.4675,1.2825 -2.76,3.81978 -1.55,5.65978 1.9075,2.5925 6.075,2.18758 8.8125,1.71758 4.57001,0.0425 9.69759,-0.97508 12.88009,-4.53008 0.135,-0.9575 -0.82484,-1.615 -1.43984,-2.175 -0.965,-1.425 -2.10782,-3.50734 -4.05782,-3.46484 z m -264.42969,0.0375 c -1.86,0.74 -2.99765,2.91234 -4.01015,4.50234 -3.06,1.5025 1.04757,3.72272 2.76757,4.16522 2.415,1.135 5.17,1.62736 7.8375,1.50236 1.69,0.62 3.93258,0.38508 5.69258,-0.02 l 0.2,0.025 c 3.025,0.6025 5.175,-3.5175 3.2375,-5.4125 -0.15,-1.4125 -1.67523,-2.42492 -3.01523,-2.54492 -3.645,-1.9075 -8.54477,-1.32008 -12.70977,-2.21758 z m 237.33046,3.56328 c -0.749,0.007 -1.5989,0.18944 -1.60312,0.37928 -0.4,-0.005 -0.80508,-0.0351 -1.19258,0.0574 -7.295,0.8525 -15.65742,1.11242 -21.79492,5.50742 -2.9525,3.615 2.44234,4.63008 5.02734,3.88008 0.285,0.075 0.57008,0.0824 0.85508,0.02 3.6275,0.1825 7.31008,-0.0249 10.89258,-0.51486 l 0.20234,0.0449 c 3.6275,-0.2825 7.32266,-0.59764 10.83516,-1.58514 0.5625,-0.8875 0.615,-1.97508 0.5875,-2.99258 0.2775,-1.7125 -0.42484,-4.695 -2.68984,-4.4125 -0.0154,-0.28766 -0.53698,-0.38906 -1.11954,-0.384 z m -208.99335,0.32966 c -1.16392,-0.007 -2.32242,0.0118 -3.46992,0.0496 -1.6,2.2875 -2.84742,6.5497 0.48008,7.9422 6.86,0.9025 13.78758,1.7475 20.71758,1.5 1.71,0.0625 3.95992,0.5628 5.38242,-0.4547 1.555,-0.02 1.18258,-2.2878 0.20508,-2.9328 -6.755,-4.74906 -15.16776,-6.05474 -23.31524,-6.1043 z m 32.20508,14.71718 c -1.73808,-0.0307 -3.2325,0.40478 -3.65469,2.05742 -1.18,1.9 -0.77015,6.64994 1.97735,6.44494 3.745,0.745 7.64757,0.21992 11.44257,0.26992 2.475,0.0825 9.27258,1.82742 7.69258,-2.89258 -2.755,-3.235 -7.20281,-4.58478 -11.30781,-5.04728 -1.27828,0.0168 -3.91533,-0.79298 -6.15,-0.83242 z m 145.11093,0.42656 c -0.1105,-0.002 -0.225,0.002 -0.34336,0.0106 -5.94,0.215 -12.38742,0.82282 -17.65742,3.82032 -2.805,1.375 -1.1125,5.86718 1.9,4.57968 0.2775,0.0625 0.55508,0.0525 0.83008,-0.0375 3.3625,-0.0475 6.91,0.42016 10.1625,-0.27734 2.035,-0.3125 5.85742,1.42 6.63242,-0.9875 1.58876,-1.55242 1.9012,-7.03952 -1.52422,-7.1082 z m 11.72032,1.359 c -2.41702,-0.0325 -4.0532,2.53374 -3.61368,4.87186 l -0.0801,0.1875 c -0.025,1.0575 0.59524,2.16986 1.70274,2.36486 5.16,1.2275 10.49992,1.4975 15.78242,1.6375 3.0425,0.145 6.82984,-3.31236 4.98984,-6.42736 -5.4825,-2.91 -12.07492,-1.4075 -18.00742,-2.5375 -0.26532,-0.0621 -0.5238,-0.0935 -0.77382,-0.0969 z m -173.79453,0.125 c -4.51887,-0.0459 -9.45274,1.53664 -13.93399,1.76914 -3.645,0.325 -1.26492,5.63022 1.11758,6.15272 2.7225,2.1525 7.51235,0.455 10.85235,0.475 2.73,-0.0225 5.5325,-0.485 8.1125,-1.425 2.03,-1.7775 0.8925,-5.84014 -1.8,-6.27264 -1.38188,-0.4875 -2.84215,-0.68392 -4.34844,-0.69922 z m 204.58163,4.2082 c -0.25938,0.016 -0.3607,0.48992 -0.46836,0.70116 -1.305,1.01 -1.85242,2.6772 -2.75742,4.0047 -0.3325,0.385 -0.77242,0.725 -0.90742,1.2375 4.6975,3.845 9.07984,8.0875 13.68984,12.025 1.1575,1.2475 2.20016,2.71766 3.74767,3.51016 1.195,1.5425 2.85758,2.70014 4.48008,3.76014 1.6825,1.6325 3.76992,3.02744 6.00742,3.76994 0.14,0.0425 0.4225,0.12742 0.5625,0.16992 1.245,1.1175 3.76008,1.04508 5.24258,0.0926 2.535,-4.9725 -3.31774,-9.015 -6.61524,-11.725 -1.94,-2.465 -4.65242,-4.4275 -7.15742,-6.3375 -4.67251,-4.385 -10.10009,-7.905 -15.61759,-11.1375 -0.0787,-0.0539 -0.14678,-0.0748 -0.20664,-0.0711 z m -232.11054,0.0684 c -8.0075,4.4075 -15.0975,10.2728 -21.775,16.4703 -2.7925,2.97 -6.54031,5.31978 -8.02031,9.29728 -0.18,2.745 2.8625,5.37508 5.4375,3.64258 11.125,-5.8725 19.04258,-16.06986 29.00508,-23.55236 -1.305,-1.975 -2.81477,-4.6453 -4.64727,-5.8578 z m 160.5078,1.57852 c -1.46854,-0.0266 -3.066,0.50874 -4.05546,1.13164 -3.295,0.79 -6.17992,3.12514 -8.24492,5.74764 -2.0125,2.535 -0.84008,7.97986 2.88242,7.87736 2.52,0.705 5.59734,-0.6225 7.55234,-2.1875 0.7,-0.1175 1.17008,-0.67016 1.54258,-1.23516 2.945,-1.91 4.53274,-6.2025 3.40274,-9.625 -0.58828,-1.22462 -1.7839,-1.6855 -3.0797,-1.70898 z m -88.32733,0.11914 c -0.70084,0.004 -1.37234,0.1253 -1.9832,0.39492 -2.7075,1.28 -2.07992,5.56742 -0.51992,7.54492 0.4325,1.5775 1.74492,2.79274 2.99492,3.76524 2.86,2.95998 8.0125,4.4275 11.5875,1.8625 2.3375,-2.83 1.02008,-7.18494 -2.14492,-8.79494 -0.7175,-0.8375 -1.72258,-1.41 -2.73008,-1.8 -1.82422,-1.51366 -4.7013,-2.9879 -7.2043,-2.97264 z m 63.56327,8.33514 c -0.2847,0.004 -0.58444,0.0426 -0.89882,0.11994 -2.26,0.0275 -4.85766,0.1 -6.91016,0.4875 -6.0275,0.42248 -12.04258,0.96492 -18.08008,0.55742 -0.145,-0.01 -0.43742,-0.0299 -0.58242,-0.0399 -2.41998,-0.635 -5.13726,-0.2703 -7.64726,-0.4953 -0.165,0.02 -0.49258,0.0628 -0.65508,0.0828 -5.07,-2.635 -10.21507,3.47478 -6.49257,7.88478 8.78999,2.06 18.08265,3.01008 27.07265,2.08008 2.9175,-0.4 5.91484,-0.50758 8.77734,-1.10508 2.15,-0.1175 4.29734,-0.37734 6.40234,-0.83984 4.1625,-1.08986 3.28468,-8.7934 -0.98594,-8.73244 z m 46.95196,3.1875 c -0.8403,0.0142 -1.62046,0.15368 -2.23828,0.42228 -1.3925,0.23 -4.82992,1.2675 -3.30742,3.025 1.6225,2.55 0.12492,5.43758 0.25742,8.16758 -0.7375,3.2575 5.67984,3.99758 7.48984,2.83008 2.935,-1.16502 3.62,-5.10266 3.7375,-7.91016 2.46798,-4.30828 -2.2978,-6.59652 -5.93906,-6.53478 z m -133.71757,0.032 c -1.97969,0.004 -3.91328,0.62304 -5.45313,2.0879 -0.2275,4.3925 0.5775,9.06506 2.9875,12.84256 1.7775,-0.29 3.63242,-0.285 5.35742,-0.8125 2.4525,0.06 4.69,-1.8675 2.975,-4.5375 -0.002,-2.5375 0.16477,-5.0575 0.53477,-7.5625 -1.85539,-1.2378 -4.15791,-2.0227 -6.40156,-2.01796 z m 118.36249,2.03516 c -0.76508,-0.003 -1.5171,0.11774 -2.16836,0.35274 -4.5975,0.345 -4.23508,6.94492 -0.49258,8.53242 3.18,2.3575 8.71508,-1.4825 7.54258,-5.2625 -0.1725,-2.49188 -2.5864,-3.61388 -4.88164,-3.62266 z m -101.92577,0.0539 c -0.63739,0.006 -1.26172,0.0713 -1.82735,0.16876 -4.2225,0.7325 -4.48031,7.96734 -0.44531,9.21484 3.8775,1.2675 8.96,-3.09726 7.125,-7.13476 -0.91125,-1.75688 -2.9402,-2.2677 -4.85234,-2.24884 z m 133.02499,4.85626 c -3.03,1.2425 -5.36008,4.34264 -6.23008,7.44764 -3.5275,4.6425 2.95766,8.8347 7.26016,8.2297 1.175,0.135 2.43492,-0.045 3.45742,-0.6922 1.4975,-0.57 4.51492,-1.6425 3.46992,-3.725 -0.7075,-1.745 -1.55984,-3.7403 -2.76484,-4.9953 -1.07,-2.4075 -2.53758,-5.39984 -5.19258,-6.26484 z m -164.52265,0.14844 c -0.60942,0.0279 -1.19836,0.2725 -1.72227,0.80898 -1.19,0.7925 -2.16,2.12772 -2.4875,3.54022 -1.4375,2.665 -4.01742,5.84494 -3.21992,9.09494 3.2725,3.81746 9.62977,2.14996 13.12227,-0.6625 2.385,-1.67 1.45515,-5.3925 0.0102,-7.175 -0.045,-0.385 -0.0977,-0.80758 -0.44024,-1.04258 -0.65039,-2 -3.08599,-4.66382 -5.2625,-4.56406 z m -65.74648,12.44178 c -0.45299,-0.008 -0.90805,0.0652 -1.33321,0.2297 -0.615,0.1475 -1.45023,0.205 -1.67773,0.925 -2.6775,5.35752 -2.15992,11.49012 -2.69492,17.28012 0.06,3.955 -0.58235,8.3249 1.23515,11.9949 3.28,-8.6375 5.26242,-17.7524 7.64492,-26.6774 0.71297,-2.1693 -1.21128,-3.71844 -3.17421,-3.75232 z m 296.24024,0.0543 c -1.4881,-0.0182 -3.05314,0.7168 -3.01094,2.33552 0.4,3.225 1.20218,6.8151 2.27968,9.7301 1.26,5.7525 2.755,11.4974 4.25,17.2024 2.52,2.54 2.03016,-4.0175 2.23516,-5.1875 0.6625,-0.315 0.33242,-2.7775 -0.005,-3.0075 -0.5075,-6.5225 0.68492,-14.8875 -3.51758,-20.25504 -0.47344,-0.525 -1.3384,-0.80704 -2.23124,-0.81798 z m -235.23634,8.87382 c -1.1823,-0.035 -2.22164,0.8563 -3.01992,1.6992 -1.2375,0.825 -2.22469,2.1398 -2.70469,3.5098 -1.9275,2.165 -2.69281,5.6201 -2.72031,8.5176 -0.7425,3.1775 -0.17969,7.8926 3.14531,9.5176 2.5475,0.7825 5.37492,1.3401 8.00742,0.6851 2.6325,0.2075 3.64258,-2.8576 4.48008,-4.8051 1.3025,-1.67 1.77992,-4.3274 2.29492,-6.4074 1.195,-2.835 1.69485,-6.125 1.96485,-9.2 2.43,-5.4525 -5.34242,-1.795 -8.23242,-3.0625 -0.5725,-0.57 -1.6725,-0.1353 -2.375,-0.2703 -0.28688,-0.1186 -0.5674,-0.1759 -0.84024,-0.184 z m 172.64609,0.068 c -3.39484,0.052 -6.9464,0.9312 -10.36094,0.6387 0.005,1.9175 0.56774,3.7999 1.01524,5.6449 1.0375,4.5425 1.90742,9.6027 4.21992,13.5652 0.3675,4.2475 5.32,4.6322 8.6,4.2297 2.16,0.1875 4.8075,-0.5223 5.4125,-2.9098 0.165,-0.2025 0.21258,-0.4349 0.14258,-0.6949 2.005,-7.1125 0.0672,-16.4277 -6.70782,-20.3527 -0.76312,-0.1008 -1.53806,-0.1331 -2.32148,-0.1211 z m 9.7543,25.4285 c -2.9225,1.0975 -5.64758,3.0601 -8.64258,4.2051 -2.4975,1.1825 -7.00758,0.7302 -6.50508,4.5277 0.12,4.515 -3.77258,10.0224 0.19492,13.7649 2.2175,3.2475 5.42492,5.895 9.15742,7.2 l 1.51524,0 c 0.575,-0.155 1.11492,-0.415 1.63242,-0.7125 l 0.16758,-0.093 c 1.525,-0.57 2.74758,-1.7126 3.33008,-3.2301 1.8575,-2.475 2.81976,-5.4899 3.50976,-8.4699 1.23,-5.775 -0.0773,-12.9376 -4.35976,-17.1926 z m -190.23281,0.078 c -1.4125,0.89 -2.17484,2.4225 -2.98984,3.82 -3.3325,6.79 -2.73516,15.8276 1.51484,22.0976 1.1125,1.88 2.94016,3.2949 5.11016,3.7024 l 1.27734,0 c 0.69,-0.125 1.38016,-0.2927 1.94766,-0.7227 4.88,-1.7925 9.77015,-6.5522 8.89765,-12.1672 -0.515,-3.41 -0.94265,-6.8326 -1.52265,-10.2301 -0.035,-0.685 -0.90243,-0.5126 -1.36993,-0.7101 -4.5925,-1.17 -8.97023,-3.0799 -12.86523,-5.7899 z"
         inkscape:connector-curvature="0" />
    </g>
  </g>
</svg>
